PathFileType	4	(X/Y/Z)	s03c0201.trc
DataRate	CameraRate	NumFrames	NumMarkers	Units	OrigDataRate	OrigDataStartFrame	OrigNumFrames
200	200	6	52	mm	200	0	2000
Frame#	Time	racr			lacr			c7			jug			rlel			rdr			llel			ldr			s2			lic			ric			lasi			rasi			rpsi			lpsi			rgt			lgt			rth1			rth2			rth3			rth4			rlfc			rmfc			rsh1			rsh2			rsh3			rsh4			rlmal			rmmal			rcal			rtoe			rmt5			rmt1			lth1			lth2			lth4			lth3			llfc			lmfc			lsh1			lsh2			lsh3			lsh4			llmal			lmmal			lcal			ltoe			lmt1			lmt5			SBIKE			LBIKE			RBIKE			
		X1	Y1	Z1	X2	Y2	Z2	X3	Y3	Z3	X4	Y4	Z4	X5	Y5	Z5	X6	Y6	Z6	X7	Y7	Z7	X8	Y8	Z8	X9	Y9	Z9	X10	Y10	Z10	X11	Y11	Z11	X12	Y12	Z12	X13	Y13	Z13	X14	Y14	Z14	X15	Y15	Z15	X16	Y16	Z16	X17	Y17	Z17	X18	Y18	Z18	X19	Y19	Z19	X20	Y20	Z20	X21	Y21	Z21	X22	Y22	Z22	X23	Y23	Z23	X24	Y24	Z24	X25	Y25	Z25	X26	Y26	Z26	X27	Y27	Z27	X28	Y28	Z28	X29	Y29	Z29	X30	Y30	Z30	X31	Y31	Z31	X32	Y32	Z32	X33	Y33	Z33	X34	Y34	Z34	X35	Y35	Z35	X36	Y36	Z36	X37	Y37	Z37	X38	Y38	Z38	X39	Y39	Z39	X40	Y40	Z40	X41	Y41	Z41	X42	Y42	Z42	X43	Y43	Z43	X44	Y44	Z44	X45	Y45	Z45	X46	Y46	Z46	X47	Y47	Z47	X48	Y48	Z48	X49	Y49	Z49	X50	Y50	Z50	X51	Y51	Z51	X52	Y52	Z52	
0	0.0000	485.580636	1450.907766	-77.607114	481.911807	1471.001063	-394.158858	401.395467	1527.155831	-233.406842	457.202693	1362.509926	-235.263975	517.617149	1177.002213	17.040092	737.491906	988.454597	-30.688802	533.078168	1201.258741	-478.858792	739.959609	978.725251	-449.503022	-90.161640	1203.685795	-255.389485	107.192377	1212.025466	-431.844130	80.771221	1236.252036	-64.172527	115.957489	1132.540026	-392.089611	96.893651	1170.866025	-106.073940	-64.406536	1256.048967	-210.701973	-53.715232	1250.693427	-293.491058	16.022745	1159.667158	-44.811200	34.221925	1096.813911	-442.832032	140.227554	1076.793143	-21.228986	228.899563	1075.147727	-15.756050	304.168808	1032.776512	-13.542081	240.208488	1107.867373	-28.984002	427.277350	971.764492	-27.980491	439.211868	959.138092	-156.937694	355.497239	823.127767	-16.223577	333.208522	739.119901	-34.949668	268.480021	678.093799	-42.342551	358.057648	727.763871	-61.664337	197.083770	566.295407	-70.251516	222.496943	582.710525	-157.489142	128.262287	523.909596	-113.233019	437.262120	507.271447	-117.996240	319.018013	493.991752	-47.626470	343.456644	509.772145	-162.330086	99.384440	952.045328	-465.818259	155.411929	885.681770	-466.658961	188.353134	901.280022	-460.823175	171.602203	798.470311	-455.118996	241.076366	688.650683	-436.488525	247.209578	679.753918	-313.693314	157.513504	535.626958	-455.959294	148.024705	453.391390	-436.363568	94.055014	379.528468	-426.365421	176.799509	444.594132	-411.017782	38.519380	265.447985	-402.441176	75.195019	278.495544	-312.985666	-30.010078	222.738379	-351.328571	277.737713	193.651922	-359.427518	186.273000	198.326776	-315.023991	155.006192	177.667723	-428.115627	-264.469838	927.914918	-247.477629	-8.863111	80.073260	-432.800893	-9.165980	80.676916	-32.857752	
1	0.0050	485.577973	1450.894126	-77.635680	481.906903	1470.985300	-394.177427	401.377849	1527.181437	-233.410701	457.167106	1362.520015	-235.269781	517.618456	1176.986442	17.036960	737.474313	988.468608	-30.667836	533.059943	1201.260544	-478.878902	739.947895	978.730179	-449.496918	-90.146380	1203.681219	-255.413912	107.193800	1212.019951	-431.896203	80.760109	1236.243895	-64.183882	115.920911	1132.554466	-392.052054	96.927557	1170.824333	-106.148499	-64.420565	1256.050895	-210.721718	-53.713499	1250.673707	-293.532774	16.007394	1159.655745	-44.835650	34.191315	1096.820110	-442.851979	140.231172	1076.762932	-21.237039	228.905089	1075.159303	-15.758809	304.156011	1032.775714	-13.534514	240.209562	1107.873888	-28.977874	427.264448	971.734693	-27.974043	439.837173	957.031962	-152.475827	355.491854	823.134550	-16.238887	333.202316	739.125062	-34.945078	268.469214	678.079657	-42.348314	358.070887	727.762910	-61.670445	197.043296	566.283594	-70.247790	222.490582	582.706538	-157.491714	128.248657	523.913083	-113.231981	437.231457	507.284491	-118.006768	319.000870	494.009240	-47.642666	343.424210	509.787122	-162.335108	99.374680	952.038612	-465.826740	155.400843	885.665457	-466.677702	188.346444	901.227887	-460.816365	171.577305	798.454201	-455.118451	241.054550	688.657850	-436.468625	247.191253	679.755570	-313.676402	157.495227	535.618388	-455.946274	148.020804	453.393221	-436.379868	94.059003	379.515908	-426.347303	176.806304	444.582777	-410.993478	38.520779	265.424726	-402.437631	75.204314	278.463423	-312.987969	-29.994450	222.710939	-351.329239	277.750165	193.659038	-359.424716	186.279624	198.316713	-315.020937	155.018856	177.666824	-428.103154	-264.385082	927.890969	-247.644756	-8.868058	80.107846	-432.779031	-9.143940	80.655788	-32.866179	
2	0.0100	485.589115	1450.875636	-77.626950	481.884497	1470.984846	-394.189143	401.340315	1527.182868	-233.382331	460.285500	1361.784074	-230.544218	517.606460	1176.982678	17.039574	737.487654	988.443587	-30.675640	533.052766	1201.246604	-478.882108	739.946023	978.730253	-449.495098	-90.152374	1203.670035	-255.424048	107.170681	1212.020104	-431.859236	80.745843	1236.237971	-64.208938	115.920911	1132.554466	-392.052054	96.927196	1170.822383	-106.147985	-64.443386	1256.040142	-210.723159	-53.727247	1250.669633	-293.538972	15.997944	1159.644358	-44.824005	34.175375	1096.813190	-442.863321	140.214491	1076.754599	-21.241348	228.894205	1075.156918	-15.767575	304.156782	1032.792645	-13.539486	240.182270	1107.860476	-28.975767	427.254397	971.758187	-27.958320	439.814780	957.021313	-152.438727	355.475812	823.138302	-16.226806	333.160681	739.116833	-34.968168	268.450361	678.085521	-42.347705	358.036391	727.785284	-61.657573	197.027044	566.290827	-70.243729	222.480131	582.713296	-157.477565	128.234333	523.905418	-113.220322	437.207819	507.294643	-117.999993	318.957626	494.017338	-47.637027	343.407955	509.787194	-162.317321	99.368234	952.026179	-465.824410	155.378190	885.646949	-466.671335	188.323699	901.213437	-460.814331	171.555419	798.444477	-455.104772	241.025144	688.639870	-436.440580	247.153404	679.741263	-313.679667	157.482034	535.607633	-455.931614	148.024447	453.380986	-436.354912	94.060832	379.483639	-426.328374	176.794097	444.573613	-410.990560	38.524486	265.402012	-402.438936	75.265405	278.417834	-313.007891	-30.113698	222.755468	-351.474218	277.762438	193.677017	-359.416011	186.305615	198.334071	-315.040242	155.046691	177.635719	-428.099960	-264.381545	927.900167	-247.614373	-8.843396	80.086504	-432.797819	-9.150088	80.664522	-32.866428	
3	0.0150	485.566702	1450.863952	-77.622399	481.860900	1470.992226	-394.198158	401.330379	1527.177545	-233.392331	457.749215	1361.746388	-231.982748	517.591102	1176.979683	17.047318	737.469201	988.466485	-30.649641	533.659426	1201.208147	-478.259602	739.945642	978.729697	-449.479677	-90.158748	1203.659886	-255.426375	106.612630	1210.950485	-428.994777	81.029363	1236.186795	-64.196352	113.653818	1130.426198	-387.489566	96.927030	1170.849961	-106.149394	-64.446319	1256.039675	-210.736736	-53.687910	1251.083782	-293.297773	16.010336	1159.642720	-44.830854	34.189471	1097.417239	-443.939507	140.203059	1076.749816	-21.244398	228.892273	1075.154502	-15.764173	304.310593	1032.767256	-13.408053	239.361031	1108.282089	-29.716118	427.600310	971.249975	-27.659362	440.078679	958.081241	-154.670134	355.459618	823.102511	-16.189124	333.145703	739.126582	-34.970433	268.414632	678.103370	-42.335908	359.252953	728.583045	-61.341719	196.932844	566.331083	-70.132525	222.525492	582.773873	-157.383410	128.212058	523.918117	-113.211666	437.191072	507.300567	-118.007752	318.953677	494.023820	-47.635411	343.388388	509.801612	-162.331850	99.304482	952.009506	-465.891315	155.910247	884.764333	-464.898504	188.762227	900.715593	-459.819625	171.539383	798.436137	-455.101727	242.044812	687.839494	-434.975953	247.133517	679.715694	-313.646267	158.078830	534.756075	-454.479816	147.928582	451.329254	-433.207032	94.060270	379.468593	-426.320320	176.869870	443.146778	-408.492053	38.536938	265.631669	-402.830861	75.243382	278.408185	-313.000437	-30.106968	222.726002	-351.466228	278.150799	193.637865	-359.257894	186.306102	198.322546	-315.034728	155.706347	176.027348	-425.943965	-264.421393	927.900452	-247.772921	-8.854075	80.082999	-432.788032	-9.149943	80.657509	-32.857367	
4	0.0200	485.655122	1450.775593	-77.800105	481.837595	1470.974388	-394.216602	401.342276	1527.145204	-233.456877	457.562745	1362.315516	-233.716012	516.561663	1177.273490	16.044738	737.235865	989.014147	-31.380270	533.051734	1201.757160	-479.595920	739.746826	979.061355	-450.177578	-90.201942	1203.652676	-255.460170	106.911053	1211.607230	-430.666489	80.634408	1236.211162	-64.137097	114.550720	1131.476259	-389.160481	96.908577	1170.887805	-106.165505	-64.397928	1256.073052	-210.795363	-53.725033	1251.082095	-293.196425	16.020210	1159.674647	-44.838219	34.191627	1097.384742	-443.926623	140.263320	1076.760267	-21.283444	228.935348	1075.176606	-15.812113	304.345117	1032.755683	-13.421256	239.423784	1108.261395	-29.774009	425.929857	972.159181	-28.566006	439.546706	958.715994	-155.950936	355.506246	823.094077	-16.239816	332.310978	739.428947	-35.799009	268.431266	678.076046	-42.349578	358.577030	728.847541	-62.157590	196.967366	566.280473	-70.183368	222.670220	582.705452	-157.563847	128.226559	523.924162	-113.211267	437.187014	507.297233	-118.057973	318.716920	494.072238	-47.489701	343.380107	509.807374	-162.385930	99.294997	951.915377	-465.901285	155.618041	885.355051	-466.297967	188.450143	901.332432	-461.293048	171.530002	798.425807	-455.087417	241.114122	688.553303	-436.582581	246.552283	680.006929	-314.321993	157.492769	535.571674	-456.088673	147.965462	453.284492	-436.637541	93.563634	380.280179	-427.418787	176.752618	444.038323	-409.967296	38.457465	265.539583	-402.857357	74.884565	278.381349	-313.887360	-29.997795	222.730754	-351.510457	277.725105	193.912764	-360.260663	186.324055	198.513081	-315.071746	155.040896	177.573664	-428.120158	-265.026926	927.976868	-247.215352	-9.124534	80.891303	-433.408035	-9.207596	80.749656	-32.873870	
5	0.0250	485.593519	1450.773298	-77.829532	481.811176	1470.970731	-394.232370	401.302477	1527.128375	-233.471013	457.396648	1362.340584	-233.988962	516.552828	1177.284971	16.029287	737.046244	988.793116	-31.309497	533.006958	1201.803615	-479.750668	739.678056	979.041563	-450.237232	-90.194567	1203.711125	-255.446860	106.927077	1211.665741	-430.808744	80.982253	1236.219411	-64.357243	114.680379	1131.596205	-389.560620	96.879193	1170.954206	-106.133350	-64.414326	1256.088209	-210.792535	-53.744183	1251.072395	-293.203988	16.022198	1159.691566	-44.828456	34.177224	1097.367497	-443.881930	140.251180	1076.773706	-21.298389	228.926152	1075.181472	-15.814439	304.330481	1032.755966	-13.481662	239.409984	1108.277500	-29.791482	425.994273	972.176107	-28.653612	439.490027	958.737112	-156.041089	355.498506	823.085215	-16.241425	332.239595	739.437703	-35.869022	268.420185	678.078017	-42.355412	358.515980	728.858181	-62.228725	196.947477	566.269404	-70.169869	222.526841	582.752943	-157.440051	128.193505	523.918698	-113.215657	437.178071	507.312032	-118.058191	318.723135	494.080674	-47.479608	343.355274	509.801264	-162.399088	99.276887	951.977489	-465.871395	155.500789	885.349178	-466.144013	188.324026	901.303919	-461.064755	171.507691	798.405019	-455.059459	241.313362	688.274305	-436.050405	246.492675	679.987324	-314.381077	157.446375	535.565406	-455.954930	147.967582	453.282844	-436.690748	93.562934	380.226331	-427.355263	176.643562	444.558167	-410.888605	38.386896	265.673556	-403.078551	74.909252	278.324238	-313.942385	-29.960752	222.625664	-351.348902	276.570161	194.313232	-360.957404	186.340514	198.410998	-315.004327	155.080446	177.598468	-428.084150	-264.432002	927.896563	-247.713155	-9.204047	80.725001	-433.464956	-9.204112	80.735956	-32.967885	
